<svg width="45" height="45" viewBox="0 0 45 45" fill="none" xmlns="http://www.w3.org/2000/svg">
<path fill-rule="evenodd" clip-rule="evenodd" d="M10.7244 10.7244C11.2736 10.1752 12.1639 10.1752 12.7131 10.7244L22.5 20.5113L32.2869 10.7244C32.8361 10.1752 33.7264 10.1752 34.2756 10.7244C34.8248 11.2736 34.8248 12.1639 34.2756 12.7131L24.4887 22.5L34.2756 32.2869C34.8248 32.8361 34.8248 33.7264 34.2756 34.2756C33.7264 34.8248 32.8361 34.8248 32.2869 34.2756L22.5 24.4887L12.7131 34.2756C12.1639 34.8248 11.2736 34.8248 10.7244 34.2756C10.1752 33.7264 10.1752 32.8361 10.7244 32.2869L20.5113 22.5L10.7244 12.7131C10.1752 12.1639 10.1752 11.2736 10.7244 10.7244Z" fill="white"/>
</svg>
