<svg width="109" height="24" viewBox="0 0 109 24" fill="none" xmlns="http://www.w3.org/2000/svg">
<path d="M10.4743 18H0.898313V0.863999H10.4743V2.76H3.05831V8.112H10.0423V9.984H3.05831V16.104H10.4743V18ZM16.9943 11.424L12.5543 5.136H14.9543L18.2663 9.984L21.5543 5.136H23.9303L19.4903 11.424L24.1703 18H21.7703L18.2663 12.864L14.7143 18H12.3383L16.9943 11.424ZM32.7694 4.896C34.3534 4.896 35.6254 5.448 36.5854 6.552C37.5614 7.656 38.0494 9.32 38.0494 11.544C38.0494 13 37.8254 14.232 37.3774 15.24C36.9454 16.232 36.3294 16.984 35.5294 17.496C34.7454 17.992 33.8174 18.24 32.7454 18.24C32.0894 18.24 31.5054 18.152 30.9934 17.976C30.4814 17.8 30.0414 17.576 29.6734 17.304C29.3214 17.016 29.0174 16.704 28.7614 16.368H28.6174C28.6494 16.64 28.6814 16.984 28.7134 17.4C28.7454 17.816 28.7614 18.176 28.7614 18.48V23.76H26.6494V5.136H28.3774L28.6654 6.888H28.7614C29.0174 6.52 29.3214 6.184 29.6734 5.88C30.0414 5.576 30.4734 5.336 30.9694 5.16C31.4814 4.984 32.0814 4.896 32.7694 4.896ZM32.3854 6.672C31.5214 6.672 30.8254 6.84 30.2974 7.176C29.7694 7.496 29.3854 7.984 29.1454 8.64C28.9054 9.296 28.7774 10.128 28.7614 11.136V11.544C28.7614 12.6 28.8734 13.496 29.0974 14.232C29.3214 14.968 29.6974 15.528 30.2254 15.912C30.7694 16.296 31.5054 16.488 32.4334 16.488C33.2174 16.488 33.8574 16.272 34.3534 15.84C34.8654 15.408 35.2414 14.824 35.4814 14.088C35.7374 13.336 35.8654 12.48 35.8654 11.52C35.8654 10.048 35.5774 8.872 35.0014 7.992C34.4414 7.112 33.5694 6.672 32.3854 6.672ZM47.415 4.896C47.655 4.896 47.911 4.912 48.183 4.944C48.471 4.96 48.719 4.992 48.927 5.04L48.663 6.984C48.455 6.936 48.223 6.896 47.967 6.864C47.727 6.832 47.495 6.816 47.271 6.816C46.775 6.816 46.303 6.92 45.855 7.128C45.407 7.336 45.007 7.632 44.655 8.016C44.303 8.384 44.023 8.832 43.815 9.36C43.623 9.888 43.527 10.48 43.527 11.136V18H41.415V5.136H43.143L43.383 7.488H43.479C43.751 7.008 44.079 6.576 44.463 6.192C44.847 5.792 45.287 5.48 45.783 5.256C46.279 5.016 46.823 4.896 47.415 4.896ZM55.8283 4.896C56.9323 4.896 57.8763 5.136 58.6603 5.616C59.4603 6.096 60.0683 6.776 60.4843 7.656C60.9163 8.52 61.1323 9.536 61.1323 10.704V11.976H52.3243C52.3563 13.432 52.7243 14.544 53.4283 15.312C54.1483 16.064 55.1483 16.44 56.4283 16.44C57.2443 16.44 57.9643 16.368 58.5883 16.224C59.2283 16.064 59.8843 15.84 60.5563 15.552V17.4C59.9003 17.688 59.2523 17.896 58.6123 18.024C57.9723 18.168 57.2123 18.24 56.3323 18.24C55.1163 18.24 54.0363 17.992 53.0923 17.496C52.1643 17 51.4363 16.264 50.9083 15.288C50.3963 14.296 50.1403 13.088 50.1403 11.664C50.1403 10.256 50.3723 9.048 50.8363 8.04C51.3163 7.032 51.9803 6.256 52.8283 5.712C53.6923 5.168 54.6923 4.896 55.8283 4.896ZM55.8043 6.624C54.7963 6.624 53.9963 6.952 53.4043 7.608C52.8283 8.248 52.4843 9.144 52.3723 10.296H58.9243C58.9243 9.56 58.8123 8.92 58.5883 8.376C58.3643 7.832 58.0203 7.408 57.5563 7.104C57.1083 6.784 56.5243 6.624 55.8043 6.624ZM72.7832 14.448C72.7832 15.28 72.5752 15.976 72.1592 16.536C71.7432 17.096 71.1512 17.52 70.3832 17.808C69.6152 18.096 68.7032 18.24 67.6472 18.24C66.7512 18.24 65.9752 18.168 65.3192 18.024C64.6792 17.88 64.1112 17.68 63.6152 17.424V15.504C64.1272 15.76 64.7432 16 65.4632 16.224C66.1992 16.432 66.9432 16.536 67.6952 16.536C68.7672 16.536 69.5432 16.368 70.0232 16.032C70.5032 15.68 70.7432 15.216 70.7432 14.64C70.7432 14.32 70.6552 14.032 70.4792 13.776C70.3032 13.52 69.9832 13.264 69.5192 13.008C69.0712 12.752 68.4232 12.464 67.5752 12.144C66.7432 11.824 66.0312 11.504 65.4392 11.184C64.8472 10.864 64.3912 10.48 64.0712 10.032C63.7512 9.584 63.5912 9.008 63.5912 8.304C63.5912 7.216 64.0312 6.376 64.9112 5.784C65.8072 5.192 66.9752 4.896 68.4152 4.896C69.1992 4.896 69.9272 4.976 70.5992 5.136C71.2872 5.28 71.9272 5.488 72.5192 5.76L71.7992 7.44C71.4472 7.28 71.0712 7.144 70.6712 7.032C70.2872 6.904 69.8952 6.808 69.4952 6.744C69.0952 6.664 68.6872 6.624 68.2712 6.624C67.4072 6.624 66.7432 6.768 66.2792 7.056C65.8312 7.328 65.6072 7.704 65.6072 8.184C65.6072 8.536 65.7112 8.84 65.9192 9.096C66.1272 9.336 66.4712 9.576 66.9512 9.816C67.4472 10.04 68.1032 10.312 68.9192 10.632C69.7352 10.936 70.4312 11.248 71.0072 11.568C71.5832 11.888 72.0232 12.28 72.3272 12.744C72.6312 13.192 72.7832 13.76 72.7832 14.448ZM84.2676 14.448C84.2676 15.28 84.0596 15.976 83.6436 16.536C83.2276 17.096 82.6356 17.52 81.8676 17.808C81.0996 18.096 80.1876 18.24 79.1316 18.24C78.2356 18.24 77.4596 18.168 76.8036 18.024C76.1636 17.88 75.5956 17.68 75.0996 17.424V15.504C75.6116 15.76 76.2276 16 76.9476 16.224C77.6836 16.432 78.4276 16.536 79.1796 16.536C80.2516 16.536 81.0276 16.368 81.5076 16.032C81.9876 15.68 82.2276 15.216 82.2276 14.64C82.2276 14.32 82.1396 14.032 81.9636 13.776C81.7876 13.52 81.4676 13.264 81.0036 13.008C80.5556 12.752 79.9076 12.464 79.0596 12.144C78.2276 11.824 77.5156 11.504 76.9236 11.184C76.3316 10.864 75.8756 10.48 75.5556 10.032C75.2356 9.584 75.0756 9.008 75.0756 8.304C75.0756 7.216 75.5156 6.376 76.3956 5.784C77.2916 5.192 78.4596 4.896 79.8996 4.896C80.6836 4.896 81.4116 4.976 82.0836 5.136C82.7716 5.28 83.4116 5.488 84.0036 5.76L83.2836 7.44C82.9316 7.28 82.5556 7.144 82.1556 7.032C81.7716 6.904 81.3796 6.808 80.9796 6.744C80.5796 6.664 80.1716 6.624 79.7556 6.624C78.8916 6.624 78.2276 6.768 77.7636 7.056C77.3156 7.328 77.0916 7.704 77.0916 8.184C77.0916 8.536 77.1956 8.84 77.4036 9.096C77.6116 9.336 77.9556 9.576 78.4356 9.816C78.9316 10.04 79.5876 10.312 80.4036 10.632C81.2196 10.936 81.9156 11.248 82.4916 11.568C83.0676 11.888 83.5076 12.28 83.8116 12.744C84.1156 13.192 84.2676 13.76 84.2676 14.448ZM87.0639 16.704C87.0639 16.112 87.2079 15.696 87.4959 15.456C87.7839 15.216 88.1279 15.096 88.5279 15.096C88.9439 15.096 89.2959 15.216 89.5839 15.456C89.8879 15.696 90.0399 16.112 90.0399 16.704C90.0399 17.28 89.8879 17.696 89.5839 17.952C89.2959 18.208 88.9439 18.336 88.5279 18.336C88.1279 18.336 87.7839 18.208 87.4959 17.952C87.2079 17.696 87.0639 17.28 87.0639 16.704ZM92.2858 23.76C91.8858 23.76 91.5338 23.728 91.2298 23.664C90.9258 23.616 90.6618 23.552 90.4378 23.472V21.768C90.6778 21.832 90.9258 21.888 91.1818 21.936C91.4378 21.984 91.7178 22.008 92.0218 22.008C92.5338 22.008 92.9578 21.864 93.2938 21.576C93.6298 21.304 93.7978 20.776 93.7978 19.992V5.136H95.9098V19.92C95.9098 20.72 95.7818 21.408 95.5258 21.984C95.2698 22.56 94.8778 23 94.3498 23.304C93.8218 23.608 93.1338 23.76 92.2858 23.76ZM93.6298 1.656C93.6298 1.192 93.7498 0.855999 93.9898 0.647999C94.2298 0.423999 94.5258 0.311999 94.8778 0.311999C95.1978 0.311999 95.4778 0.423999 95.7178 0.647999C95.9738 0.855999 96.1018 1.192 96.1018 1.656C96.1018 2.104 95.9738 2.44 95.7178 2.664C95.4778 2.888 95.1978 3 94.8778 3C94.5258 3 94.2298 2.888 93.9898 2.664C93.7498 2.44 93.6298 2.104 93.6298 1.656ZM108.361 14.448C108.361 15.28 108.153 15.976 107.737 16.536C107.321 17.096 106.729 17.52 105.961 17.808C105.193 18.096 104.281 18.24 103.225 18.24C102.329 18.24 101.553 18.168 100.897 18.024C100.257 17.88 99.6893 17.68 99.1933 17.424V15.504C99.7053 15.76 100.321 16 101.041 16.224C101.777 16.432 102.521 16.536 103.273 16.536C104.345 16.536 105.121 16.368 105.601 16.032C106.081 15.68 106.321 15.216 106.321 14.64C106.321 14.32 106.233 14.032 106.057 13.776C105.881 13.52 105.561 13.264 105.097 13.008C104.649 12.752 104.001 12.464 103.153 12.144C102.321 11.824 101.609 11.504 101.017 11.184C100.425 10.864 99.9693 10.48 99.6493 10.032C99.3293 9.584 99.1693 9.008 99.1693 8.304C99.1693 7.216 99.6093 6.376 100.489 5.784C101.385 5.192 102.553 4.896 103.993 4.896C104.777 4.896 105.505 4.976 106.177 5.136C106.865 5.28 107.505 5.488 108.097 5.76L107.377 7.44C107.025 7.28 106.649 7.144 106.249 7.032C105.865 6.904 105.473 6.808 105.073 6.744C104.673 6.664 104.265 6.624 103.849 6.624C102.985 6.624 102.321 6.768 101.857 7.056C101.409 7.328 101.185 7.704 101.185 8.184C101.185 8.536 101.289 8.84 101.497 9.096C101.705 9.336 102.049 9.576 102.529 9.816C103.025 10.04 103.681 10.312 104.497 10.632C105.313 10.936 106.009 11.248 106.585 11.568C107.161 11.888 107.601 12.28 107.905 12.744C108.209 13.192 108.361 13.76 108.361 14.448Z" fill="white"/>
</svg>
