<svg width="72" height="72" viewBox="0 0 72 72" fill="none" xmlns="http://www.w3.org/2000/svg">
<path d="M36 6.73999C28.8764 6.74029 21.9853 9.27533 16.5599 13.8915C11.1344 18.5077 7.52846 24.9039 6.38736 31.9354C5.24626 38.967 6.64441 46.1752 10.3317 52.2703C14.0189 58.3653 19.7546 62.9494 26.5125 65.2025C28.0125 65.465 28.575 64.565 28.575 63.7775C28.575 63.065 28.5375 60.7025 28.5375 58.19C21 59.5775 19.05 56.3526 18.45 54.6651C17.7842 53.0239 16.7288 51.5694 15.375 50.4275C14.325 49.865 12.825 48.4775 15.3374 48.4401C16.2968 48.5442 17.2169 48.878 18.0199 49.4132C18.8228 49.9485 19.4849 50.6694 19.95 51.515C20.3603 52.2521 20.912 52.901 21.5735 53.4245C22.2351 53.948 22.9934 54.3358 23.8051 54.5657C24.6167 54.7956 25.4658 54.8631 26.3036 54.7643C27.1414 54.6655 27.9515 54.4024 28.6874 53.99C28.8173 52.4648 29.497 51.0389 30.6 49.9776C23.925 49.2276 16.95 46.64 16.95 35.1651C16.9078 32.1835 18.008 29.2988 20.025 27.1026C19.1078 24.5112 19.2151 21.6674 20.325 19.1526C20.325 19.1526 22.8374 18.3651 28.575 22.2276C33.4838 20.8775 38.6661 20.8775 43.575 22.2276C49.3124 18.3276 51.825 19.1526 51.825 19.1526C52.935 21.6674 53.0423 24.5113 52.125 27.1026C54.148 29.2951 55.2492 32.1823 55.2 35.1651C55.2 46.6775 48.1874 49.2276 41.5125 49.9776C42.2284 50.7032 42.7798 51.5745 43.1292 52.5321C43.4786 53.4897 43.6179 54.5114 43.5375 55.5276C43.5375 59.5401 43.4999 62.765 43.4999 63.7776C43.4999 64.5651 44.0624 65.5026 45.5624 65.2026C52.3084 62.9312 58.0277 58.3363 61.6992 52.2381C65.3707 46.14 66.7556 38.9355 65.6066 31.9107C64.4576 24.8859 60.8495 18.4981 55.4264 13.8875C50.0032 9.27694 43.1181 6.74369 36 6.73999Z" fill="white"/>
</svg>
