<svg width="20" height="21" viewBox="0 0 20 21" fill="none" xmlns="http://www.w3.org/2000/svg">
<path d="M20 5.05C19.9888 4.61857 19.9554 4.18801 19.9 3.76C19.8253 3.38512 19.7009 3.02191 19.53 2.68C19.3513 2.3091 19.1112 1.97103 18.82 1.68C18.5261 1.3922 18.1886 1.15259 17.82 0.97C17.4776 0.802444 17.1144 0.681373 16.74 0.61C16.3161 0.546499 15.8886 0.50976 15.46 0.5H4.55C4.11857 0.511236 3.68801 0.544614 3.26 0.6C2.88512 0.674668 2.52191 0.799103 2.18 0.97C1.8091 1.14874 1.47103 1.38877 1.18 1.68C0.892204 1.97391 0.652591 2.31139 0.47 2.68C0.302444 3.02236 0.181373 3.38558 0.11 3.76C0.0464994 4.18393 0.0097601 4.61145 0 5.04C0 5.23 0 5.5 0 5.58V15.42C0 15.53 0 15.77 0 15.95C0.0112364 16.3814 0.0446136 16.812 0.0999999 17.24C0.174668 17.6149 0.299103 17.9781 0.47 18.32C0.648737 18.6909 0.888773 19.029 1.18 19.32C1.47391 19.6078 1.81139 19.8474 2.18 20.03C2.52236 20.1976 2.88558 20.3186 3.26 20.39C3.68393 20.4535 4.11145 20.4902 4.54 20.5H15.45C15.8814 20.4888 16.312 20.4554 16.74 20.4C17.1149 20.3253 17.4781 20.2009 17.82 20.03C18.1909 19.8513 18.529 19.6112 18.82 19.32C19.1078 19.0261 19.3474 18.6886 19.53 18.32C19.6976 17.9776 19.8186 17.6144 19.89 17.24C19.9535 16.8161 19.9902 16.3886 20 15.96C20 15.77 20 15.53 20 15.42V5.58C20 5.5 20 5.23 20 5.05ZM10.23 17.5C9.02906 17.4941 7.84913 17.1845 6.8 16.6L3 17.6L4 13.88C3.35511 12.7965 3.00999 11.5609 3 10.3C3.00398 8.88293 3.4272 7.49872 4.21636 6.32171C5.00552 5.1447 6.12532 4.22753 7.43473 3.68572C8.74414 3.1439 10.1846 3.00167 11.5747 3.27694C12.9648 3.55221 14.2423 4.23266 15.2464 5.2326C16.2505 6.23255 16.9363 7.50725 17.2173 8.89619C17.4984 10.2851 17.3622 11.7262 16.8258 13.0378C16.2894 14.3495 15.3769 15.4731 14.2032 16.2671C13.0295 17.0612 11.647 17.4901 10.23 17.5V17.5ZM10.23 4.37C9.16981 4.38213 8.13177 4.67498 7.22156 5.21874C6.31135 5.76249 5.56148 6.53773 5.0483 7.46552C4.53512 8.39331 4.27695 9.44052 4.30008 10.5005C4.32322 11.5605 4.62683 12.5955 5.18 13.5L5.32 13.73L4.72 15.92L7 15.3L7.22 15.43C8.12957 15.9658 9.1644 16.2521 10.22 16.26V16.26C11.8113 16.26 13.3374 15.6279 14.4626 14.5026C15.5879 13.3774 16.22 11.8513 16.22 10.26C16.22 8.6687 15.5879 7.14258 14.4626 6.01736C13.3374 4.89214 11.8113 4.26 10.22 4.26L10.23 4.37ZM13.73 12.89C13.599 13.1085 13.4236 13.297 13.2152 13.4434C13.0068 13.5898 12.7699 13.6909 12.52 13.74C12.1465 13.8083 11.7621 13.7842 11.4 13.67C11.0593 13.5635 10.7254 13.4366 10.4 13.29C9.16374 12.6697 8.10944 11.7394 7.34 10.59C6.92188 10.0575 6.66819 9.41455 6.61 8.74C6.60405 8.45979 6.65705 8.18145 6.76558 7.92305C6.87412 7.66464 7.03575 7.43192 7.24 7.24C7.30016 7.17179 7.37397 7.11696 7.45665 7.07906C7.53934 7.04117 7.62905 7.02105 7.72 7.02H8C8.11 7.02 8.26 7.02 8.4 7.33C8.54 7.64 8.91 8.57 8.96 8.66C8.98457 8.70797 8.99739 8.7611 8.99739 8.815C8.99739 8.8689 8.98457 8.92203 8.96 8.97C8.91579 9.07867 8.85508 9.17986 8.78 9.27C8.69 9.38 8.59 9.51 8.51 9.59C8.43 9.67 8.33 9.77 8.43 9.95C8.70209 10.4092 9.03888 10.8268 9.43 11.19C9.85593 11.5664 10.3429 11.8673 10.87 12.08C11.05 12.17 11.16 12.16 11.26 12.08C11.36 12 11.71 11.56 11.83 11.38C11.95 11.2 12.07 11.23 12.23 11.29C12.39 11.35 13.28 11.78 13.46 11.87C13.64 11.96 13.75 12 13.8 12.08C13.8434 12.3417 13.8193 12.6102 13.73 12.86V12.89Z" fill="white"/>
</svg>
